<svg width="391" height="60" viewBox="0 0 391 60" fill="none" xmlns="http://www.w3.org/2000/svg">
<g clip-path="url(#clip0_13_930)">
<path d="M389.905 13.1383H381.184V46.7825H389.905V13.1383Z" fill="#0A0A0A"/>
<path d="M390.242 0.322144H380.868V8.52336H390.242V0.322144Z" fill="#0A0A0A"/>
<path d="M375.012 24.9201C375.012 15.9333 368.557 12.2255 360.297 12.2255C351.061 12.2255 345.135 17.8239 345.135 24.2645H353.534C353.664 20.356 356.27 18.926 360.305 18.926C363.886 18.926 366.291 20.486 366.291 23.4195C366.291 26.0251 363.747 26.7401 356.459 27.3279C348.388 27.9751 343.634 31.095 343.634 37.0213C343.634 43.6003 348.326 47.5681 355.15 47.571C359.901 47.571 363.866 45.5503 366.669 41.7747H366.867V42.3625C366.867 44.8975 368.953 46.7881 371.491 46.7881H378.002V40.2176H375.009V24.9258L375.012 24.9201ZM366.353 31.8892C366.353 38.0048 361.67 40.9354 357.437 40.9354C354.642 40.9354 352.553 39.5732 352.553 37.0976C352.553 34.622 354.444 33.1892 358.222 32.7342C361.405 32.347 364.465 31.8892 366.353 30.4564V31.8892Z" fill="#0A0A0A"/>
<path d="M337.83 38.0726H329.108V46.791H337.83V38.0726Z" fill="#0A0A0A"/>
<path d="M329.219 13.1383H325.827C321.73 13.1383 318.35 15.6733 316.134 20.1667H315.874V13.1383H307.342V46.7825H316.131V30.7757C316.131 24.403 319.452 21.2123 324.592 21.2123H329.216V13.1383H329.219Z" fill="#0A0A0A"/>
<path d="M286.52 12.2227C275.981 12.2227 269.925 19.6382 269.925 29.8601C269.925 40.0819 276.041 47.5681 286.978 47.5681V47.5568C294.78 47.5568 300.964 43.5891 302.597 35.7157H294.065C293.022 38.7791 290.487 40.5963 286.969 40.5963C282.156 40.5963 279.282 37.6035 278.638 32.2057H302.916C302.987 31.6179 302.987 30.2472 302.987 29.8601C302.987 19.1832 297.061 12.2227 286.523 12.2227H286.52ZM278.841 26.3501C279.757 21.5967 282.69 18.9345 286.588 18.9345C290.485 18.9345 293.548 21.3395 294.133 26.3501H278.841Z" fill="#0A0A0A"/>
<path d="M257.101 17.6233H256.903C254.628 13.7855 250.391 12.2255 246.941 12.2255C237.307 12.2255 231.838 20.2882 231.838 29.8629C231.838 39.4376 237.307 47.5682 246.941 47.5682V47.5795C250.391 47.5795 254.628 46.0788 256.903 42.241H257.101V46.7938H265.819V0.322144H257.101V17.6204V17.6233ZM249.086 40.5482C243.29 40.5482 240.885 35.3992 240.885 29.8714C240.885 24.3436 243.29 19.2624 249.086 19.2624C254.882 19.2624 257.29 24.3323 257.29 29.8714C257.29 35.4105 254.885 40.5482 249.086 40.5482Z" fill="#0A0A0A"/>
<path d="M216.487 12.234C211.734 12.234 207.967 14.2518 205.621 18.9345H205.423V13.1383H197.033V46.791H205.751V29.2129C205.751 23.8151 208.484 19.4489 213.825 19.4489C217.462 19.4489 219.353 21.9245 219.353 25.5023V46.7882H228.071V24.2701C228.071 17.1824 225.011 12.2311 216.49 12.2311L216.487 12.234Z" fill="#0A0A0A"/>
<path d="M191.115 24.9201C191.115 15.9333 184.663 12.2255 176.4 12.2255C167.164 12.2255 161.238 17.8239 161.238 24.2645H169.628C169.758 20.356 172.361 18.926 176.4 18.926C179.977 18.926 182.385 20.486 182.385 23.4195C182.385 26.0251 179.839 26.7401 172.553 27.3279C164.479 27.9751 159.729 31.095 159.729 37.0213C159.729 43.6032 164.42 47.571 171.251 47.571C176.004 47.571 179.98 45.5532 182.772 41.7747H182.97V42.3625C182.97 44.8975 185.059 46.7881 187.594 46.7881H194.105V40.2176H191.112V24.9258L191.115 24.9201ZM182.445 31.8892C182.445 38.0048 177.753 40.9354 173.526 40.9354C170.731 40.9354 168.645 39.5732 168.645 37.0976H168.656C168.656 34.5513 170.536 33.1892 174.314 32.7342C177.496 32.347 180.557 31.8892 182.447 30.4564V31.8892H182.445Z" fill="#0A0A0A"/>
<path d="M142.071 12.234C138.562 12.234 134.328 13.7939 132.05 17.6317H131.852V13.1383H123.134V59.6778H131.852V42.2382H132.05C134.328 46.076 138.553 47.5766 142.071 47.5766C151.635 47.5766 157.103 39.3754 157.103 29.8686C157.103 20.3617 151.635 12.2311 142.071 12.2311V12.234ZM139.864 40.5482C134.139 40.5482 131.663 35.3398 131.663 29.8714C131.663 24.403 134.068 19.2624 139.864 19.2624C145.661 19.2624 148.066 24.403 148.066 29.8714C148.066 35.3398 145.59 40.5482 139.864 40.5482Z" fill="#0A0A0A"/>
<path d="M120.059 13.1383H109.778L103.208 23.6173L96.5664 13.1383H86.288L97.8098 29.2836L85.3187 46.7825H95.5829L103.199 34.5429L110.745 46.7825H120.964L108.538 29.3429L120.059 13.1383Z" fill="#0A0A0A"/>
<path d="M85.313 47.116L85.3187 47.1047H85.3017L85.313 47.116Z" fill="#0A0A0A"/>
<path fill-rule="evenodd" clip-rule="evenodd" d="M26.2201 14.2433V26.2201H14.2433L0 7.94687V0H7.94687L26.2201 14.2433ZM33.7799 14.2433L52.0532 0H60.0001V7.94687L45.7568 26.2201H33.7799V14.2433ZM33.7799 33.7797V45.7565L52.0532 59.9998H60.0001V52.0529L45.7568 33.7797H33.7799ZM0 59.9998V52.0529L14.2433 33.7797H26.2201V45.7565L7.94687 59.9998H0Z" fill="#0C0B0D"/>
</g>
<defs>
<clipPath id="clip0_13_930">
<rect width="390.244" height="60" fill="white"/>
</clipPath>
</defs>
</svg>
