<svg width="656" height="100" viewBox="0 0 656 100" fill="none" xmlns="http://www.w3.org/2000/svg">
<g clip-path="url(#clip0_2605_26)">
<path d="M655.28 21.5931H640.587V78.2782H655.28V21.5931Z" fill="#0C0B0D"/>
<path d="M655.847 0H640.053V13.8177H655.847V0Z" fill="#0C0B0D"/>
<path d="M630.188 41.4389C630.188 26.2974 619.312 20.0504 605.395 20.0504C589.834 20.0504 579.85 29.4828 579.85 40.3342H594.001C594.22 33.7491 598.61 31.3398 605.409 31.3398C611.442 31.3398 615.494 33.9681 615.494 38.9105C615.494 43.3006 611.208 44.5052 598.929 45.4956C585.33 46.586 577.321 51.8426 577.321 61.8274C577.321 72.912 585.225 79.5971 596.724 79.6019C604.728 79.6019 611.408 76.1974 616.132 69.8361H616.465V70.8265C616.465 75.0976 619.979 78.283 624.255 78.283H635.225V67.2126H630.183V41.4484L630.188 41.4389ZM615.598 53.1854C615.598 63.4891 607.709 68.4268 600.576 68.4268C595.867 68.4268 592.348 66.1317 592.348 61.9607C592.348 57.7897 595.534 55.3756 601.9 54.609C607.261 53.9567 612.418 53.1854 615.598 50.7713V53.1854Z" fill="#0C0B0D"/>
<path d="M567.541 63.6035H552.847V78.2926H567.541V63.6035Z" fill="#0C0B0D"/>
<path d="M553.033 21.5931H547.319C540.415 21.5931 534.72 25.8642 530.988 33.4349H530.549V21.5931H516.175V78.2782H530.983V51.3094C530.983 40.5723 536.577 35.1966 545.239 35.1966H553.028V21.5931H553.033Z" fill="#0C0B0D"/>
<path d="M481.092 20.0504C463.337 20.0504 453.133 32.5445 453.133 49.7666C453.133 66.9888 463.437 79.6019 481.864 79.6019V79.5828C495.01 79.5828 505.428 72.8978 508.18 59.6324H493.805C492.048 64.7938 487.777 67.8554 481.849 67.8554C473.741 67.8554 468.898 62.813 467.813 53.7186H508.718C508.837 52.7283 508.837 50.4189 508.837 49.7666C508.837 31.7779 498.852 20.0504 481.097 20.0504H481.092ZM468.155 43.8529C469.698 35.8441 474.64 31.3589 481.207 31.3589C487.773 31.3589 492.934 35.4109 493.92 43.8529H468.155Z" fill="#0C0B0D"/>
<path d="M431.526 29.1448H431.192C427.359 22.6788 420.222 20.0505 414.408 20.0505C398.176 20.0505 388.963 33.6349 388.963 49.7667C388.963 65.8985 398.176 79.5972 414.408 79.5972V79.6162C420.222 79.6162 427.359 77.0879 431.192 70.6218H431.526V78.2925H446.215V0H431.526V29.1448ZM418.022 67.7745C408.256 67.7745 404.204 59.0991 404.204 49.7857C404.204 40.4723 408.256 31.9112 418.022 31.9112C427.788 31.9112 431.845 40.4533 431.845 49.7857C431.845 59.1182 427.793 67.7745 418.022 67.7745Z" fill="#0C0B0D"/>
<path d="M363.099 20.0695C355.09 20.0695 348.743 23.4691 344.791 31.3589H344.458V21.5931H330.321V78.2925H345.01V48.6763C345.01 39.5819 349.614 32.2254 358.613 32.2254C364.741 32.2254 367.927 36.3965 367.927 42.4245V78.2877H382.616V40.3485C382.616 28.4068 377.459 20.0647 363.104 20.0647L363.099 20.0695Z" fill="#0C0B0D"/>
<path d="M320.35 41.4389C320.35 26.2974 309.48 20.0504 295.558 20.0504C279.997 20.0504 270.012 29.4828 270.012 40.3342H284.149C284.368 33.7491 288.753 31.3398 295.558 31.3398C301.586 31.3398 305.642 33.9681 305.642 38.9105C305.642 43.3006 301.352 44.5052 289.077 45.4956C275.474 46.586 267.47 51.8426 267.47 61.8274C267.47 72.9168 275.374 79.6019 286.882 79.6019C294.891 79.6019 301.59 76.2022 306.295 69.8361H306.628V70.8265C306.628 75.0976 310.147 78.283 314.418 78.283H325.388V67.2126H320.346V41.4484L320.35 41.4389ZM305.742 53.1854C305.742 63.4891 297.838 68.4268 290.715 68.4268C286.006 68.4268 282.492 66.1317 282.492 61.9607H282.511C282.511 57.6706 285.678 55.3756 292.044 54.609C297.405 53.9567 302.562 53.1854 305.747 50.7713V53.1854H305.742Z" fill="#0C0B0D"/>
<path d="M237.72 20.0695C231.806 20.0695 224.674 22.6978 220.836 29.1638H220.503V21.5931H205.814V100.005H220.503V70.6218H220.836C224.674 77.0878 231.792 79.6162 237.72 79.6162C253.833 79.6162 263.046 65.7984 263.046 49.7809C263.046 33.7634 253.833 20.0647 237.72 20.0647V20.0695ZM234.002 67.7744C224.355 67.7744 220.184 58.9991 220.184 49.7857C220.184 40.5723 224.236 31.9112 234.002 31.9112C243.767 31.9112 247.819 40.5723 247.819 49.7857C247.819 58.9991 243.648 67.7744 234.002 67.7744Z" fill="#0C0B0D"/>
<path d="M200.633 21.5931H183.311L172.241 39.2486L161.051 21.5931H143.729L163.146 48.7953L142.101 78.2735H159.394L172.226 57.6564L184.94 78.2735H202.157L181.221 48.8953L200.633 21.5931Z" fill="#0C0B0D"/>
<path d="M43.7006 43.7006V23.7406L13.2464 0H0V13.2464L23.7406 43.7006H43.7006Z" fill="#753CFF"/>
<path d="M86.7536 0L56.2994 23.7406V43.7006H76.2594L100 13.2464V0H86.7536Z" fill="#753CFF"/>
<path d="M56.2994 56.2994V76.2594L86.7536 100H100V86.7537L76.2594 56.2994H56.2994Z" fill="#753CFF"/>
<path d="M0 86.7537V100H13.2464L43.7006 76.2594V56.2994H23.7406L0 86.7537Z" fill="#753CFF"/>
</g>
<defs>
<clipPath id="clip0_2605_26">
<rect width="655.852" height="100" fill="white"/>
</clipPath>
</defs>
</svg>
